<svg id="flat" height="512" viewBox="0 0 512 512" width="512" xmlns="http://www.w3.org/2000/svg"><path d="m320 424 24 32h64l32-16v-32l-18.783-18.783h-101.217z" fill="#ffceb6"/><path d="m296 432v56h-176v-88l104 32z" fill="#548aff"/><path d="m344 336-64 24v64h-48l-96-32v-32l-64-24 20.03-66.76a31.93236 31.93236 0 0 1 16.34-19.41992l43.63-21.82008 24-12 8-16h48l8 16 24 12 43.63 21.82007a31.93236 31.93236 0 0 1 16.34 19.41993z" fill="#ffc431"/><path d="m246.4 219.2-19.2 14.4a32.00979 32.00979 0 0 1 -38.3999 0l-19.2001-14.4 6.4-3.2 8-16h48l8 16z" fill="#ffbfa1"/><path d="m280 440v-136l-16-24h-112l-16 24v112z" fill="#548aff"/><path d="m184 280h-32v-52l24-12z" fill="#486be0"/><path d="m264 228v52h-32l8-64z" fill="#486be0"/><path d="m440 264-8.4 56-2.4 16-2.4 16-2.4 16-8.4 56h-160l12.4-24-4.8-32-2.4-16-2.4-16-2.4-16-4.8-32-3.6-24z" fill="#e3a15b"/><path d="m272 264v-32a24 24 0 0 1 24-24 24 24 0 0 1 24 24v32z" fill="#d14521"/><path d="m352 264v-40a24 24 0 0 1 24-24 24 24 0 0 1 24 24v40z" fill="#d14521"/><path d="m304 264v-32a24 24 0 0 1 24-24 24 24 0 0 1 24 24v32z" fill="#e35430"/><path d="m264 264v-8a24 24 0 0 1 24-24 24 24 0 0 1 24 24v8z" fill="#ef5e3b"/><path d="m320 264v-8a24 24 0 0 1 24-24 24 24 0 0 1 24 24v8z" fill="#f5714f"/><path d="m376 264v-16a24 24 0 0 1 24-24 24 24 0 0 1 24 24v16z" fill="#ef5e3b"/><g fill="#c78640"><path d="m272.4 288v16h-18l-2.4-16z"/><path d="m288.4 288h32v16h-32z"/><path d="m336.4 288h32v16h-32z"/><path d="m384 288h32v16h-32z"/><path d="m296.4 352v16h-32.4l-2.4-16z"/><path d="m312.4 352h32v16h-32z"/><path d="m360.4 352h32v16h-32z"/><path d="m427.2 352-2.4 16h-16.4v-16z"/><path d="m304.4 384v16h-35.6l-2.4-16z"/><path d="m320.4 384h32v16h-32z"/><path d="m368.4 384h32v16h-32z"/><path d="m280.4 320v16h-21.2l-2.4-16z"/><path d="m296.4 320h32v16h-32z"/><path d="m344.4 320h32v16h-32z"/><path d="m432 320-2.4 16h-37.2v-16z"/></g><path d="m264 88v64.00006a55.99994 55.99994 0 0 1 -55.99994 55.99994h-.00012a55.99994 55.99994 0 0 1 -55.99994-55.99994v-64.00006z" fill="#ffceb6"/><circle cx="184" cy="128" fill="#a36522" r="8"/><circle cx="232" cy="128" fill="#a36522" r="8"/><path d="m200 176h-8v-16h8a8.00917 8.00917 0 0 0 8-8v-8h16v8a24.0275 24.0275 0 0 1 -24 24z" fill="#c78869"/><path d="m312 64a57.88846 57.88846 0 0 1 -51.777 32h-104.44595a57.88846 57.88846 0 0 1 -51.77705-32z" fill="#d69651"/><path d="m264 64-24-40h-64l-24 40z" fill="#b1712c"/><path d="m136 360 88 48 32-16h24v16l-16 16h24l32-16 8 8-32 40h-96l-96-40-24-24v-53z" fill="#ffceb6"/></svg>